<svg xmlns="http://www.w3.org/2000/svg" xmlns:xlink="http://www.w3.org/1999/xlink" viewBox="0 0 413.79 412.19"><defs><style>.cls-1{fill:#d9d9d9;}.cls-2{fill:url(#linear-gradient);}.cls-3{fill:url(#linear-gradient-2);}</style><linearGradient id="linear-gradient" x1="-115.75" y1="1066.23" x2="-88.85" y2="1034.85" gradientTransform="matrix(0.98, 0, 0, 1.01, 202.42, -684.09)" gradientUnits="userSpaceOnUse"><stop offset="0" stop-color="#ebdb0a"/><stop offset="0.08" stop-color="#edde1c"/><stop offset="0.29" stop-color="#f2e64b"/><stop offset="0.5" stop-color="#f5ec71"/><stop offset="0.7" stop-color="#f8f08b"/><stop offset="0.87" stop-color="#f9f39b"/><stop offset="1" stop-color="#faf4a1"/></linearGradient><linearGradient id="linear-gradient-2" x1="227.4" y1="648.66" x2="-109" y2="1003.24" gradientTransform="matrix(0.98, 0, 0, 1.01, 202.42, -684.09)" gradientUnits="userSpaceOnUse"><stop offset="0" stop-color="#fffb50"/><stop offset="0.25" stop-color="#fefa4d"/><stop offset="0.47" stop-color="#fdf542"/><stop offset="0.67" stop-color="#faee30"/><stop offset="0.86" stop-color="#f6e317"/><stop offset="1" stop-color="#f3da01"/></linearGradient></defs><title>main-postit</title><g id="Layer_2" data-name="Layer 2"><g id="Layer_1-2" data-name="Layer 1"><path class="cls-1" d="M15.19,356.37c3.45-19.76,6.49-31.3,5.69-58.12l-.14-190,372.54.29.22,303.17L0,412.19A332.68,332.68,0,0,0,15.19,356.37Z"/><path class="cls-2" d="M232.33,399.16c-106.91.12-210.9-52-211-110.85s86.49-102.58,193.4-102.7S339.24,399,232.33,399.16Z"/><path class="cls-3" d="M409.74,348.68c0,31.66,4.05,51.83,4.05,51.83s-155.49-1.38-181.46-1.35-53.45-7.89-87.24-23.41-43.32-41.09-43.32-41.09S68.92,339.79,59.46,337c-23-2.74-38.52-28.57-38.59-54S20.66,0,20.66,0L409.48.29Z"/></g></g></svg>