<svg xmlns="http://www.w3.org/2000/svg" xmlns:xlink="http://www.w3.org/1999/xlink" viewBox="0 0 164.09 159.18"><defs><style>.cls-1{fill:#d9d9d9;}.cls-2{fill:url(#linear-gradient);}.cls-3{fill:url(#linear-gradient-2);}</style><linearGradient id="linear-gradient" x1="-172.06" y1="830.66" x2="-161.56" y2="818.42" gradientTransform="translate(206.68 -678.96) rotate(-0.11)" gradientUnits="userSpaceOnUse"><stop offset="0" stop-color="#f767ad"/><stop offset="0.2" stop-color="#f87eb9"/><stop offset="0.53" stop-color="#fa9cca"/><stop offset="0.81" stop-color="#fbafd4"/><stop offset="1" stop-color="#fbb6d8"/></linearGradient><linearGradient id="linear-gradient-2" x1="-38.13" y1="667.67" x2="-169.42" y2="806.08" gradientTransform="translate(206.68 -678.96) rotate(-0.11)" gradientUnits="userSpaceOnUse"><stop offset="0" stop-color="#f9a5ce"/><stop offset="0.06" stop-color="#f99fcb"/><stop offset="0.45" stop-color="#f881bb"/><stop offset="0.77" stop-color="#f76eb1"/><stop offset="1" stop-color="#f767ad"/></linearGradient></defs><title>postit-pink</title><g id="Layer_2" data-name="Layer 2"><g id="Layer_1-2" data-name="Layer 1"><path class="cls-1" d="M6,137.62c1.37-7.63,2.58-12.09,2.27-22.44V41.82H156V158.89L0,159.18A125.79,125.79,0,0,0,6,137.62Z"/><path class="cls-2" d="M92.13,154.08c-42.39.08-83.61-20-83.66-42.74S42.8,71.7,85.2,71.62,134.53,154,92.13,154.08Z"/><path class="cls-3" d="M162.5,134.54a110.29,110.29,0,0,0,1.59,20s-61.66-.49-72-.47-21.19-3-34.59-9-17.16-15.86-17.16-15.86-13,2-16.78.92c-9.1-1-15.27-11-15.29-20.83S8.31,0,8.31,0H162.5Z"/></g></g></svg>