<svg id="Layer_1" data-name="Layer 1" xmlns="http://www.w3.org/2000/svg" xmlns:xlink="http://www.w3.org/1999/xlink" viewBox="0 0 155.79 154.55"><defs><style>.cls-1{fill:url(#linear-gradient);}.cls-2{fill:url(#linear-gradient-2);}</style><linearGradient id="linear-gradient" x1="-180.35" y1="833.37" x2="-169.85" y2="821.12" gradientTransform="translate(206.67 -681.68) rotate(-0.11)" gradientUnits="userSpaceOnUse"><stop offset="0" stop-color="#f767ad"/><stop offset="0.2" stop-color="#f87eb9"/><stop offset="0.53" stop-color="#fa9cca"/><stop offset="0.81" stop-color="#fbafd4"/><stop offset="1" stop-color="#fbb6d8"/></linearGradient><linearGradient id="linear-gradient-2" x1="-46.42" y1="670.38" x2="-177.71" y2="808.79" gradientTransform="translate(206.67 -681.68) rotate(-0.11)" gradientUnits="userSpaceOnUse"><stop offset="0" stop-color="#f9a5ce"/><stop offset="0.06" stop-color="#f99fcb"/><stop offset="0.45" stop-color="#f881bb"/><stop offset="0.77" stop-color="#f76eb1"/><stop offset="1" stop-color="#f767ad"/></linearGradient></defs><title>postit_</title><path class="cls-1" d="M83.83,154.08c-42.39.08-83.62-20-83.66-42.74S34.5,71.7,76.89,71.62,126.22,154,83.83,154.08Z"/><path class="cls-2" d="M154.2,134.54a110.29,110.29,0,0,0,1.59,20s-61.66-.49-72-.47-21.19-3-34.59-9-17.17-15.86-17.17-15.86-13,2-16.77.92C6.19,129.08,0,119.11,0,109.3S0,0,0,0H154.2Z"/></svg>