<svg id="Layer_1" data-name="Layer 1" xmlns="http://www.w3.org/2000/svg" xmlns:xlink="http://www.w3.org/1999/xlink" viewBox="0 0 155.79 154.55"><defs><style>.cls-1{fill:url(#linear-gradient);}.cls-2{fill:url(#linear-gradient-2);}</style><linearGradient id="linear-gradient" x1="-180.42" y1="830.95" x2="-169.92" y2="818.7" gradientTransform="translate(206.73 -679.26) rotate(-0.11)" gradientUnits="userSpaceOnUse"><stop offset="0" stop-color="#8cd250"/><stop offset="0.26" stop-color="#a1da70"/><stop offset="0.56" stop-color="#b5e28e"/><stop offset="0.82" stop-color="#c2e7a1"/><stop offset="1" stop-color="#c6e9a8"/></linearGradient><linearGradient id="linear-gradient-2" x1="-46.48" y1="667.96" x2="-177.78" y2="806.36" gradientTransform="translate(206.73 -679.26) rotate(-0.11)" gradientUnits="userSpaceOnUse"><stop offset="0" stop-color="#c6e9a8"/><stop offset="0.26" stop-color="#b1e188"/><stop offset="0.56" stop-color="#9dd96a"/><stop offset="0.82" stop-color="#90d457"/><stop offset="1" stop-color="#8cd250"/></linearGradient></defs><title>postit_</title><path class="cls-1" d="M83.83,154.08c-42.39.08-83.62-20-83.66-42.74S34.5,71.7,76.89,71.62,126.22,154,83.83,154.08Z"/><path class="cls-2" d="M154.2,134.54a110.29,110.29,0,0,0,1.59,20s-61.66-.49-72-.47-21.19-3-34.59-9-17.17-15.86-17.17-15.86-13,2-16.77.92C6.19,129.08,0,119.11,0,109.3S0,0,0,0H154.2Z"/></svg>