<svg id="Layer_1" data-name="Layer 1" xmlns="http://www.w3.org/2000/svg" xmlns:xlink="http://www.w3.org/1999/xlink" viewBox="0 0 155.79 154.55"><defs><style>.cls-1{fill:url(#linear-gradient);}.cls-2{fill:url(#linear-gradient-2);}</style><linearGradient id="linear-gradient" x1="-180.2" y1="832.01" x2="-169.71" y2="819.76" gradientTransform="translate(206.52 -680.32) rotate(-0.11)" gradientUnits="userSpaceOnUse"><stop offset="0" stop-color="#51b6d4"/><stop offset="0.28" stop-color="#76c3e2"/><stop offset="0.58" stop-color="#94ceed"/><stop offset="0.83" stop-color="#a7d5f4"/><stop offset="1" stop-color="#aed7f7"/></linearGradient><linearGradient id="linear-gradient-2" x1="-46.27" y1="669.02" x2="-177.56" y2="807.43" gradientTransform="translate(206.52 -680.32) rotate(-0.11)" gradientUnits="userSpaceOnUse"><stop offset="0" stop-color="#7dbff2"/><stop offset="0.3" stop-color="#6bbbe5"/><stop offset="0.71" stop-color="#58b7d9"/><stop offset="1" stop-color="#51b6d4"/></linearGradient></defs><title>postit_</title><path class="cls-1" d="M83.83,154.08c-42.39.08-83.62-20-83.66-42.74S34.5,71.7,76.89,71.62,126.22,154,83.83,154.08Z"/><path class="cls-2" d="M154.2,134.54a110.29,110.29,0,0,0,1.59,20s-61.66-.49-72-.47-21.19-3-34.59-9-17.17-15.86-17.17-15.86-13,2-16.77.92C6.19,129.08,0,119.11,0,109.3S0,0,0,0H154.2Z"/></svg>