<svg id="Layer_1" data-name="Layer 1" xmlns="http://www.w3.org/2000/svg" xmlns:xlink="http://www.w3.org/1999/xlink" viewBox="0 0 155.79 154.55"><defs><style>.cls-1{fill:url(#linear-gradient);}.cls-2{fill:url(#linear-gradient-2);}</style><linearGradient id="linear-gradient" x1="-180.32" y1="835.56" x2="-169.82" y2="823.31" gradientTransform="translate(206.62 -683.86) rotate(-0.11)" gradientUnits="userSpaceOnUse"><stop offset="0" stop-color="#f2a73e"/><stop offset="0.31" stop-color="#f5ba67"/><stop offset="0.59" stop-color="#f7c886"/><stop offset="0.83" stop-color="#f9d199"/><stop offset="1" stop-color="#f9d4a0"/></linearGradient><linearGradient id="linear-gradient-2" x1="-46.38" y1="672.56" x2="-177.68" y2="810.97" gradientTransform="translate(206.62 -683.86) rotate(-0.11)" gradientUnits="userSpaceOnUse"><stop offset="0" stop-color="#fbcc8b"/><stop offset="0.19" stop-color="#f9c276"/><stop offset="0.52" stop-color="#f5b358"/><stop offset="0.8" stop-color="#f3aa45"/><stop offset="1" stop-color="#f2a73e"/></linearGradient></defs><title>postit_</title><path class="cls-1" d="M83.83,154.08c-42.39.08-83.62-20-83.66-42.74S34.5,71.7,76.89,71.62,126.22,154,83.83,154.08Z"/><path class="cls-2" d="M154.2,134.54a110.29,110.29,0,0,0,1.59,20s-61.66-.49-72-.47-21.19-3-34.59-9-17.17-15.86-17.17-15.86-13,2-16.77.92C6.19,129.08,0,119.11,0,109.3S0,0,0,0H154.2Z"/></svg>